<svg width="25" height="25" viewBox="0 0 25 25" fill="none" xmlns="http://www.w3.org/2000/svg">
    <path opacity="0.4" fill-rule="evenodd" clip-rule="evenodd" d="M12.4199 0.155029C9.24356 0.155814 6.19761 1.41815 3.95189 3.66443C1.70617 5.9107 0.44458 8.95697 0.44458 12.1333C0.44458 15.3096 1.70617 18.3559 3.95189 20.6021C6.19761 22.8484 9.24356 24.1108 12.4199 24.1115V0.155029Z" fill="#007E60"/>
    <path fill-rule="evenodd" clip-rule="evenodd" d="M24.5035 24.1115H12.4199C5.80261 24.0827 0.441603 18.7656 0.441603 12.1332L0.439697 12.1328H12.42L12.4199 12.1332L12.4399 12.1328H13.0459C16.0749 12.2106 18.957 13.4544 21.0915 15.6049C23.226 17.7554 24.4483 20.6467 24.5035 23.6762V24.1115Z" fill="#007E60"/>
    <path opacity="0.51" fill-rule="evenodd" clip-rule="evenodd" d="M12.4203 12.1328L0.441926 12.1332C0.436243 14.6084 1.20266 17.0238 2.63443 19.0429C2.64482 19.0575 2.65529 19.0722 2.66567 19.0868C3.77652 20.638 5.24045 21.9026 6.93655 22.7763C8.63266 23.65 10.5123 24.1077 12.4202 24.1115L12.4203 12.1328Z" fill="#FFFAE7"/>
    <circle cx="19.4055" cy="6.14426" r="4.99094" fill="#007E60"/>
</svg>