<svg width="23" height="22" viewBox="0 0 23 22" fill="none" xmlns="http://www.w3.org/2000/svg">
<g id="fi_2285551" clip-path="url(#clip0_11304_1107)">
<path id="Vector" d="M6.51292 5.94116L4.60693 6.08841C4.07657 6.12941 3.60422 6.40737 3.31092 6.85102L1.11278 10.1756C0.890333 10.512 0.85497 10.9331 1.01812 11.3019C1.18132 11.6707 1.51668 11.9278 1.91522 11.9895L3.66038 12.2598C4.06862 10.0933 5.04589 7.93219 6.51292 5.94116Z" fill="white"/>
<path id="Vector_2" d="M10.657 19.2564L10.9273 21.0015C10.989 21.4 11.2461 21.7354 11.6149 21.8986C11.7683 21.9665 11.9307 22 12.0923 22C12.3193 22 12.5448 21.9338 12.7413 21.8039L16.0659 19.6058C16.5095 19.3125 16.7875 18.8401 16.8284 18.3098L16.9757 16.4038C14.9846 17.8709 12.8235 18.8482 10.657 19.2564Z" fill="white"/>
<path id="Vector_3" d="M10.0007 18.0469C10.0613 18.0469 10.1222 18.0419 10.183 18.0317C11.0907 17.88 11.9655 17.6243 12.8 17.2897L5.62731 10.1169C5.29267 10.9514 5.03701 11.8263 4.88524 12.734C4.82543 13.0918 4.94544 13.4563 5.20192 13.7128L9.20417 17.715C9.41712 17.928 9.70454 18.0469 10.0007 18.0469Z" fill="white"/>
<path id="Vector_4" d="M21.1626 9.75396C22.9179 6.36057 22.9829 2.7746 22.8911 1.09282C22.8597 0.516566 22.4003 0.057148 21.824 0.0257381C21.5502 0.0107851 21.2256 0 20.8598 0C18.9793 0 16.0037 0.284838 13.1629 1.75423C10.9052 2.92198 7.94482 5.49325 6.19824 8.87238C6.21887 8.88849 6.23902 8.90559 6.25801 8.92458L13.9923 16.6589C14.0113 16.6779 14.0284 16.698 14.0445 16.7186C17.4236 14.972 19.9949 12.0116 21.1626 9.75396ZM13.7085 4.6509C14.9649 3.39446 17.0094 3.39433 18.2659 4.6509C18.8746 5.25955 19.2098 6.06886 19.2098 6.92965C19.2098 7.79043 18.8746 8.59974 18.2659 9.20839C17.6378 9.83654 16.8123 10.1507 15.9872 10.1508C15.1618 10.1508 14.3368 9.83672 13.7085 9.20839C13.0998 8.59974 12.7645 7.79043 12.7645 6.92965C12.7645 6.06886 13.0998 5.25955 13.7085 4.6509Z" fill="white"/>
<path id="Vector_5" d="M14.6198 8.29698C15.3737 9.05087 16.6004 9.05091 17.3543 8.29698C17.7195 7.93175 17.9207 7.4462 17.9207 6.92972C17.9207 6.41323 17.7195 5.92769 17.3543 5.5625C16.9774 5.18553 16.4822 4.99707 15.9871 4.99707C15.4919 4.99707 14.9968 5.18553 14.6198 5.5625C14.2546 5.92769 14.0535 6.41323 14.0535 6.92972C14.0535 7.4462 14.2546 7.93179 14.6198 8.29698Z" fill="white"/>
<path id="Vector_6" d="M1.57448 18.13C1.73944 18.13 1.9044 18.0671 2.03021 17.9412L4.13452 15.8369C4.38623 15.5851 4.38623 15.1771 4.13452 14.9254C3.88285 14.6736 3.47473 14.6736 3.22302 14.9254L1.11871 17.0297C0.867004 17.2814 0.867004 17.6894 1.11871 17.9412C1.24457 18.067 1.40953 18.13 1.57448 18.13Z" fill="white"/>
<path id="Vector_7" d="M6.06299 16.8538C5.81133 16.6021 5.40321 16.6021 5.1515 16.8538L1.10578 20.8995C0.854064 21.1513 0.854064 21.5593 1.10578 21.811C1.23163 21.9369 1.39659 21.9998 1.56154 21.9998C1.7265 21.9998 1.89146 21.9369 2.01727 21.811L6.06295 17.7653C6.31471 17.5136 6.31471 17.1055 6.06299 16.8538Z" fill="white"/>
<path id="Vector_8" d="M7.07991 18.7823L4.97565 20.8866C4.72394 21.1383 4.72394 21.5464 4.97565 21.7981C5.1015 21.9239 5.26646 21.9869 5.43138 21.9869C5.59629 21.9869 5.76129 21.924 5.8871 21.7981L7.99141 19.6938C8.24312 19.4421 8.24312 19.034 7.99141 18.7823C7.73974 18.5306 7.33163 18.5306 7.07991 18.7823Z" fill="white"/>
</g>
<defs>
<clipPath id="clip0_11304_1107">
<rect width="22" height="22" fill="white" transform="translate(0.916748)"/>
</clipPath>
</defs>
</svg>
