<svg width="22" height="22" viewBox="0 0 22 22" fill="none" xmlns="http://www.w3.org/2000/svg">
<g id="fi_3074801">
<g id="Group">
<path id="Vector" d="M22 1.33203H0V5.19922H22V1.33203ZM8.20703 2.62109H10.3555V3.91016H8.20703V2.62109ZM6.91797 3.91016H4.76953V2.62109H6.91797V3.91016ZM11.6445 2.62109H13.793V3.91016H11.6445V2.62109ZM15.082 2.62109H17.2305V3.91016H15.082V2.62109ZM1.28906 2.62109H3.48047V3.91016H1.28906V2.62109ZM20.7109 3.91016H18.5195V2.62109H20.7109V3.91016Z" fill="white"/>
<path id="Vector_2" d="M10.3555 9.62598V12.3741L12.4162 11L10.3555 9.62598Z" fill="white"/>
<path id="Vector_3" d="M20.7109 15.5117V6.48828H1.28906V15.5117H20.7109ZM9.06641 7.2178L14.74 11L9.06641 14.7822V7.2178Z" fill="white"/>
<path id="Vector_4" d="M22 16.8008H0V20.668H22V16.8008ZM8.20703 18.0898H10.3555V19.3789H8.20703V18.0898ZM6.91797 19.3789H4.76953V18.0898H6.91797V19.3789ZM11.6445 18.0898H13.793V19.3789H11.6445V18.0898ZM15.082 18.0898H17.2305V19.3789H15.082V18.0898ZM1.28906 18.0898H3.48047V19.3789H1.28906V18.0898ZM20.7109 19.3789H18.5195V18.0898H20.7109V19.3789Z" fill="white"/>
</g>
</g>
</svg>
