<svg width="22" height="22" viewBox="0 0 22 22" fill="none" xmlns="http://www.w3.org/2000/svg">
<g id="fi_2852859">
<g id="Group">
<path id="Vector" d="M19.3789 10.1667H22V11.4558H19.3789V10.1667Z" fill="white"/>
<path id="Vector_2" d="M21.7129 7.48026L20.9979 6.40771L19.0214 7.69678L19.7364 8.76932L21.7129 7.48026Z" fill="white"/>
<path id="Vector_3" d="M19.0214 13.9257L20.9979 15.2148L21.7129 14.1422L19.7364 12.8531L19.0214 13.9257Z" fill="white"/>
<path id="Vector_4" d="M3.22266 7.58871C1.44577 7.58871 0 9.03448 0 10.8114C0 12.5883 1.44577 14.034 3.22266 14.034H8.06609C8.38105 14.034 8.7004 14.0605 9.02344 14.1071V7.51562C8.7004 7.56229 8.38101 7.58871 8.06609 7.58871H3.22266Z" fill="white"/>
<path id="Vector_5" d="M10.3125 7.20318V14.4194C12.3371 15.0737 14.5687 16.5809 16.9896 19.0014L18.0898 20.1016V1.521L16.9896 2.62121C14.5687 5.04168 12.3371 6.5489 10.3125 7.20318Z" fill="white"/>
<path id="Vector_6" d="M7.73436 15.323H3.59668L4.62814 20.4792H7.73436V17.9011H9.02342V16.6121H7.73436V15.323Z" fill="white"/>
</g>
</g>
</svg>
