<svg width="23" height="22" viewBox="0 0 23 22" fill="none" xmlns="http://www.w3.org/2000/svg">
<g id="fi_2203512" clip-path="url(#clip0_11304_1122)">
<path id="Vector" d="M1.08519 13.7937C0.562261 14.4558 0.249878 15.2916 0.249878 16.1991V19.4003C0.249878 19.756 0.538628 20.0448 0.894409 20.0448H4.80457V18.326C4.80457 16.9579 5.3189 15.7067 6.16496 14.7575C4.49472 15.7717 2.30138 15.387 1.08519 13.7937Z" fill="white"/>
<path id="Vector_2" d="M21.4146 13.7937C20.1984 15.3869 18.0051 15.7717 16.3348 14.7575C17.1809 15.7067 17.6952 16.9579 17.6952 18.326V20.0448H21.6054C21.9612 20.0448 22.2499 19.756 22.2499 19.4003V16.1991C22.2499 15.2916 21.9375 14.4558 21.4146 13.7937Z" fill="white"/>
<path id="Vector_3" d="M14.6989 15.0081C13.9424 16.1032 12.6786 16.8223 11.2499 16.8223C9.82112 16.8223 8.55733 16.1032 7.80082 15.0081C6.76785 15.7495 6.09363 16.9605 6.09363 18.3262V20.6895C6.09363 21.0454 6.38221 21.334 6.73816 21.334H15.7616C16.1175 21.334 16.4061 21.0454 16.4061 20.6895V18.3262C16.4061 16.9605 15.7319 15.7495 14.6989 15.0081Z" fill="white"/>
<path id="Vector_4" d="M11.2499 15.5332C12.8517 15.5332 14.1503 14.2347 14.1503 12.6328C14.1503 11.031 12.8517 9.73242 11.2499 9.73242C9.64804 9.73242 8.34949 11.031 8.34949 12.6328C8.34949 14.2347 9.64804 15.5332 11.2499 15.5332Z" fill="white"/>
<path id="Vector_5" d="M4.16003 14.0293C5.58389 14.0293 6.73816 12.875 6.73816 11.4512C6.73816 10.0273 5.58389 8.87305 4.16003 8.87305C2.73618 8.87305 1.58191 10.0273 1.58191 11.4512C1.58191 12.875 2.73618 14.0293 4.16003 14.0293Z" fill="white"/>
<path id="Vector_6" d="M18.3397 14.0293C19.7636 14.0293 20.9178 12.875 20.9178 11.4512C20.9178 10.0273 19.7636 8.87305 18.3397 8.87305C16.9159 8.87305 15.7616 10.0273 15.7616 11.4512C15.7616 12.875 16.9159 14.0293 18.3397 14.0293Z" fill="white"/>
<path id="Vector_7" d="M9.20706 6.38046C10.0494 7.13946 10.8831 7.64275 10.9182 7.6638C11.1223 7.78635 11.3774 7.78635 11.5815 7.6638C11.6166 7.64275 12.4503 7.13941 13.2926 6.38046C14.5033 5.28961 15.1171 4.23215 15.1171 3.23751C15.1171 0.98255 12.8078 -0.0774034 11.2499 1.245C9.69222 -0.0771457 7.38269 0.982163 7.38269 3.23751C7.38269 4.23215 7.9965 5.28961 9.20706 6.38046Z" fill="white"/>
</g>
<defs>
<clipPath id="clip0_11304_1122">
<rect width="22" height="22" fill="white" transform="translate(0.249878)"/>
</clipPath>
</defs>
</svg>
