<svg width="23" height="22" viewBox="0 0 23 22" fill="none" xmlns="http://www.w3.org/2000/svg">
<g id="fi_2139004" clip-path="url(#clip0_11304_1136)">
<path id="Vector" d="M16.1433 14.5806L22.5833 20.6578V10.3337C21.0741 11.3287 17.3607 13.7777 16.1433 14.5806Z" fill="white"/>
<path id="Vector_2" d="M0.583252 10.3337V20.6578L7.02321 14.5806C1.55004 10.9711 3.50675 12.2614 0.583252 10.3337Z" fill="white"/>
<path id="Vector_3" d="M11.9395 17.3529C11.7225 17.4955 11.4439 17.4955 11.2269 17.3529L8.13265 15.3125L1.56458 21.5109H21.6018L15.0338 15.3125L11.9395 17.3529Z" fill="white"/>
<path id="Vector_4" d="M2.90535 7.52075L1.11084 9.1315C2.31027 9.92233 1.90262 9.65363 2.90535 10.3143C2.90535 10.0353 2.90535 7.85688 2.90535 7.52075Z" fill="white"/>
<path id="Vector_5" d="M11.8578 0.587625C11.6984 0.456143 11.4681 0.456143 11.3087 0.587625L9.32544 2.22382H13.841L11.8578 0.587625Z" fill="white"/>
<path id="Vector_6" d="M20.2612 7.52075V10.3143C21.2615 9.65527 20.8556 9.92281 22.0557 9.1315L20.2612 7.52075Z" fill="white"/>
<path id="Vector_7" d="M18.9671 11.1685V3.94944C18.9671 3.71119 18.7739 3.51807 18.5357 3.51807H4.63084C4.39259 3.51807 4.19946 3.71119 4.19946 3.94944V11.1685L11.5833 16.0378L18.9671 11.1685ZM10.1912 8.12901C9.83405 8.12901 9.54417 7.83913 9.54417 7.48195C9.54417 6.33575 10.4864 5.41567 11.632 5.44328C12.7221 5.46916 13.5961 6.34313 13.6215 7.43277C13.6416 8.26286 13.249 8.70437 12.7924 9.13152C12.4426 9.45337 12.2303 9.89405 12.2303 10.4075C12.2303 10.7632 11.9422 11.0546 11.5833 11.0546C11.2249 11.0546 10.9362 10.7638 10.9362 10.4075C10.9362 8.5241 12.3451 8.17603 12.3278 7.4634C12.3188 7.07215 11.9926 6.74646 11.6014 6.7374C11.1829 6.72752 10.8383 7.06244 10.8383 7.48195C10.8383 7.8377 10.5507 8.12901 10.1912 8.12901ZM10.9366 12.6662C10.9362 12.6597 10.9362 12.6528 10.9362 12.6463V12.2197C10.9362 11.8625 11.2261 11.5727 11.5833 11.5727C11.9404 11.5727 12.2303 11.8625 12.2303 12.2197V12.6463C12.2303 12.6528 12.2303 12.6597 12.2299 12.6662C12.2195 13.0143 11.934 13.2934 11.5833 13.2934C11.2326 13.2934 10.947 13.0143 10.9366 12.6662Z" fill="white"/>
</g>
<defs>
<clipPath id="clip0_11304_1136">
<rect width="22" height="22" fill="white" transform="translate(0.583252)"/>
</clipPath>
</defs>
</svg>
