<svg width="22" height="22" viewBox="0 0 22 22" fill="none" xmlns="http://www.w3.org/2000/svg">
<g id="fi_1842515" clip-path="url(#clip0_11392_269)">
<path id="Vector" d="M10.3555 19.3789V11.6445H9.06641C9.06641 13.0664 7.91016 14.2227 6.48828 14.2227C5.0664 14.2227 3.91016 13.0664 3.91016 11.6445H2.62109V14.2227H1.28906C0.577113 14.2227 0 14.7998 0 15.5117C0 16.2236 0.577113 16.8008 1.28906 16.8008H2.62109V19.3789H10.3555Z" fill="white"/>
<path id="Vector_2" d="M10.3555 3.91016V2.62109H7.77734V1.28906C7.77734 0.577113 7.20023 0 6.48828 0C5.77633 0 5.19922 0.577113 5.19922 1.28906V2.62109H2.62109V10.3555H5.19922V11.6445C5.19922 12.3564 5.77633 12.9336 6.48828 12.9336C7.20023 12.9336 7.77734 12.3564 7.77734 11.6445V10.3555H10.3555V9.06641C8.93359 9.06641 7.77734 7.91016 7.77734 6.48828C7.77734 5.0664 8.93359 3.91016 10.3555 3.91016Z" fill="white"/>
<path id="Vector_3" d="M18.0898 14.2227H19.3789V11.6445H11.6445V19.3789H14.2227V20.7109C14.2227 21.4228 14.7998 22 15.5117 22C16.2237 22 16.8008 21.4228 16.8008 20.7109V19.3789H19.3789V16.8008H18.0898C17.3779 16.8008 16.8008 16.2236 16.8008 15.5117C16.8008 14.7998 17.3779 14.2227 18.0898 14.2227Z" fill="white"/>
<path id="Vector_4" d="M20.7109 5.19922H19.3789V2.62109H16.8008V3.91016C16.8008 4.62202 16.2237 5.19922 15.5117 5.19922C14.7998 5.19922 14.2227 4.62202 14.2227 3.91016V2.62109H11.6445V5.19922H10.3555C9.64352 5.19922 9.06641 5.77633 9.06641 6.48828C9.06641 7.20014 9.64352 7.77734 10.3555 7.77734H11.6445V10.3555H19.3789V7.77734H20.7109C21.4229 7.77734 22 7.20014 22 6.48828C22 5.77633 21.4229 5.19922 20.7109 5.19922Z" fill="white"/>
</g>
<defs>
<clipPath id="clip0_11392_269">
<rect width="22" height="22" fill="white"/>
</clipPath>
</defs>
</svg>
