<svg width="101" height="25" viewBox="0 0 101 25" fill="none" xmlns="http://www.w3.org/2000/svg">
<path d="M91.1924 22.3384C86.1641 22.3384 82.2046 18.5603 82.2046 13.3143C82.2046 8.06833 86.1641 4.33838 91.1924 4.33838C96.2451 4.33838 100.205 8.06833 100.205 13.3143C100.205 18.5603 96.2451 22.3384 91.1924 22.3384ZM91.1924 18.2715C93.9374 18.2715 95.4677 16.0336 95.4677 13.3143C95.4677 10.5951 93.9374 8.40522 91.1924 8.40522C88.4475 8.40522 86.9171 10.5951 86.9171 13.3143C86.9171 16.0336 88.4475 18.2715 91.1924 18.2715Z" fill="#002E23"/>
<path fill-rule="evenodd" clip-rule="evenodd" d="M64.2046 22.1552C64.2046 22.1471 64.2046 22.139 64.2046 22.1309C64.2046 16.8193 68.1641 13.0427 73.1924 13.0427C78.2451 13.0427 82.2046 16.8193 82.2046 22.1309C82.2046 22.139 82.2046 22.1471 82.2046 22.1552H77.4677C77.4677 22.1471 77.4677 22.139 77.4677 22.1309C77.4677 19.3776 75.9374 17.1604 73.1924 17.1604C70.4475 17.1604 68.9171 19.3776 68.9171 22.1309C68.9171 22.139 68.9172 22.1471 68.9172 22.1552H64.2046Z" fill="#007E60"/>
<path fill-rule="evenodd" clip-rule="evenodd" d="M82.2046 4.15508C82.2046 4.1632 82.2046 4.17132 82.2046 4.17944C82.2046 9.49101 78.2451 13.2676 73.2167 13.2676C68.1641 13.2676 64.2046 9.49101 64.2046 4.17944C64.2046 4.17132 64.2046 4.1632 64.2046 4.15508H68.9415C68.9414 4.16319 68.9414 4.17132 68.9414 4.17944C68.9414 6.93268 70.4718 9.1499 73.2167 9.1499C75.9617 9.1499 77.492 6.93268 77.492 4.17944C77.492 4.17132 77.492 4.16319 77.492 4.15508H82.2046Z" fill="#007E60"/>
<path d="M47.8815 4.16255L41.4815 22.1125H36.3315L29.9815 4.16255H35.1065L39.0565 16.5875L43.1315 4.16255H47.8815Z" fill="#002E23"/>
<path d="M62.5267 18.0392V22.1392H49.8267V4.18916H62.3517V8.28916H54.5517V10.8642H61.6267V14.9642H54.5517V18.0392H62.5267Z" fill="#002E23"/>
<path opacity="0.4" fill-rule="evenodd" clip-rule="evenodd" d="M12.4199 0.155029C9.24356 0.155814 6.19761 1.41815 3.95189 3.66443C1.70617 5.9107 0.44458 8.95697 0.44458 12.1333C0.44458 15.3096 1.70617 18.3559 3.95189 20.6021C6.19761 22.8484 9.24356 24.1108 12.4199 24.1115V0.155029Z" fill="#007E60"/>
<path fill-rule="evenodd" clip-rule="evenodd" d="M24.5035 24.1115H12.4199C5.80261 24.0827 0.441603 18.7656 0.441603 12.1332L0.439697 12.1328H12.42L12.4199 12.1332L12.4399 12.1328H13.0459C16.0749 12.2106 18.957 13.4544 21.0915 15.6049C23.226 17.7554 24.4483 20.6467 24.5035 23.6762V24.1115Z" fill="#007E60"/>
<path opacity="0.51" fill-rule="evenodd" clip-rule="evenodd" d="M12.4203 12.1328L0.441926 12.1332C0.436243 14.6084 1.20266 17.0238 2.63443 19.0429C2.64482 19.0575 2.65529 19.0722 2.66567 19.0868C3.77652 20.638 5.24045 21.9026 6.93655 22.7763C8.63266 23.65 10.5123 24.1077 12.4202 24.1115L12.4203 12.1328Z" fill="#FFFAE7"/>
<circle cx="19.4055" cy="6.14426" r="4.99094" fill="#007E60"/>
</svg>
